<svg id="Laag_1" data-name="Laag 1" xmlns="http://www.w3.org/2000/svg" viewBox="0 0 1125 491.89"><defs><style>.cls-1{fill:#fff;}.cls-2{fill:#9a1915;}</style></defs><circle class="cls-1" cx="559.78" cy="242.54" r="81.17"/><path class="cls-2" d="M491.44,281a35.92,35.92,0,0,0,63.74-22.84V258h0V184.38H530.33L511,203.71l-.46.56h22.72V258h0v.16a13.76,13.76,0,0,1-4.07,9.87,13.91,13.91,0,0,1-9.87,4.23,14.26,14.26,0,0,1-10-4.23,13.85,13.85,0,0,1-2.12-2.75Zm61.7,5.3a2.73,2.73,0,0,0,1.66,1.8.86.86,0,0,0,.55-.25,8.72,8.72,0,0,1,1.49-1.14c.09,0,.12.3.12.61v9.49c0,.68,0,1.36,1.36,1.36h1.25c1.38,0,1.38-.68,1.38-1.36V283.88c0-.9,0-1.81-1.16-1.81h-1.27c-1.45,0-1.52.09-2.34,1l-.09.11c-2,2.29-3,2.52-3,3.13m5-68.6a30.15,30.15,0,0,0,14.09,24.75c6.27,4.23,13,5.95,16.61,6.89l.79.16.47.16c11.43,3.91,18.17,9.4,18.17,15.35,0,2.76-2.86,10.77-11.5,11.11v21.93a34.13,34.13,0,0,0,33.43-33,31.71,31.71,0,0,0-8.61-21.46c-5.64-6.11-13.79-11-24.29-14.57-.94-.32-1.88-.63-3.13-.94-10-2.51-13.95-5.64-14.1-11.28-.16-3.61.94-5.33,1.88-6.27,2.82-3,8.3-4.07,9.71-4.07,9.45,0,14,2.91,20.92,7.37l15-15,.63-1-3.61-2.35c-8-5.17-16.92-11-32.9-11-5.64,0-17.39,2.35-25.53,10.81a29.4,29.4,0,0,0-8,22.41m34.92,78.59c0-.39,0-1.41-1.16-1.41-.4,0-1.72.05-1.83.05l-1.84,0c-.05,0-.07,0-.07-.07s1.82-1.52,3.5-3.52a6.65,6.65,0,0,0,1.33-4.6,5.24,5.24,0,0,0-1.65-4.07,5.33,5.33,0,0,0-3.22-.74c-1.3,0-2.89,0-3.89,1.45a6.25,6.25,0,0,0-.77,3.24v.87c0,.5,0,1,.68,1h2c.64,0,.68-.43.68-.7s-.07-.91-.07-1c0-.68.27-1.77,1-1.77.55,0,1,.59,1,1.54a5.55,5.55,0,0,1-.88,3.54,17.48,17.48,0,0,1-2.18,2.64c-1.43,1.43-2.36,2.06-2.36,2.72v1.36c0,.68,0,1.36,1.2,1.36h7.24c1.27,0,1.27-.52,1.27-1.2ZM589.18,277v2.27c0,.91.64.91,1.05.91h1.83c.52,0,1,0,1-.91V277c0-.91-.46-.91-1-.91h-1.83c-.41,0-1.05,0-1.05.91M583,267.33c.48,0,.59.13.59.7V278.4c0,.91,0,1.82,1.36,1.82h1.14c1.27,0,1.31-.8,1.36-1.66V268c0-.57,0-.7.61-.7l.64,0c.57,0,1-.09,1-.64v-1.93c0-.45-.5-.68-1.07-.68h-6.26c-.57,0-1.07.23-1.07.68v1.93c0,.55.46.64,1,.64l.66,0M577.09,276c0,.7-.87,1.2-1.5,1.2a18.29,18.29,0,0,1-2.38-.34c-.62,0-.84.27-.84.55v1.74c0,.91,1.63,1.23,3.31,1.23a9.51,9.51,0,0,0,2.18-.25,4.36,4.36,0,0,0,2.43-1.7,4.86,4.86,0,0,0,.61-2.88c0-1.84-.55-3.43-3.25-5.65-.88-.73-1.09-1.09-1.09-1.8s.44-.91,1-.91,1.48.25,1.84.25h.18c.77,0,.86-.43.86-.68V265c0-.63-1.27-1-3.15-1s-4.7.34-4.7,4.81c0,1.86,1,2.81,3.11,4.88,1.38,1.36,1.41,1.75,1.41,2.27m5.65,17.76a4.6,4.6,0,0,0-.66-2.56c-.61-.89-1.77-1.5-1.77-1.71s1.93-.33,1.93-3.6c0-2.7-2.11-3.88-4.75-3.88a5.43,5.43,0,0,0-4,1.24,4.12,4.12,0,0,0-1.13,2.73,4.62,4.62,0,0,0,2,3.88c0,.23-2.09,1.43-2.09,3.9,0,3.34,2.29,4.59,5.24,4.59s5.25-1.73,5.25-4.59m-11-28.93c0-.45-.5-.68-1.07-.68h-5.86c-1.36,0-1.36.91-1.36,1.82V278.4c0,.46,0,1.82,1.36,1.82h6c.69,0,.91-.23.91-.91v-1.59c0-.68-.29-1-1.24-1-.48,0-.91,0-2.21,0a.88.88,0,0,1-.95-.75v-1.59c0-.74,0-1.06.73-1.06.47,0,1.2,0,2.36,0,.57,0,1,0,1-.72v-1.45c0-.26,0-1-.84-1-.52,0-.75,0-2.15,0-1.14,0-1.14-.38-1.14-1.86,0-.72,0-1.18,1.25-1.18.57,0,1.27,0,2.16,0,.56,0,1,0,1-.57ZM571.69,289c0-5.77-2.05-7-5.16-7-1.7,0-4.88.2-4.88,5.67,0,2.52,1.21,4.95,3.63,4.95a4.31,4.31,0,0,0,2.23-.5.14.14,0,0,1,.09-.05s.07.07.07.18c0,1.93-2.29,2.93-3.63,2.93l-.84,0c-.73,0-.87.54-.87,1.16,0,2,.3,2,1.09,2,2.23,0,4.59-.34,6.13-1.75,1.93-1.77,2.14-5.27,2.14-7.58m-105-49.62a95.1,95.1,0,1,1,95.09,95.09,95.09,95.09,0,0,1-95.09-95.09m110.84,49a1.88,1.88,0,0,0,1.11-1.95c0-1.18-.45-1.63-1.14-1.63-.84,0-1.29.41-1.29,1.63a1.85,1.85,0,0,0,1.32,1.95m-.34,2.93c-.28,0-.91,1-.91,2.2,0,.5.27,1.54,1.22,1.54.69,0,1.18-.49,1.18-1.49a2.24,2.24,0,0,0-1.49-2.25m-10.55-6.15c-1.14,0-1.14.91-1.14,2s0,2.25,1.14,2.25,1.13-1.11,1.13-2.25,0-2-1.13-2m128.48,26.51c-16.53-5-32.87-10-47.6-14.66a104,104,0,0,1-15,17.67l4.11,2.11a71.73,71.73,0,0,0,48.05,6.38c3.75-.82,7.44-1.68,11.11-2.55,4.61-1.11,3.81-7.58-.72-8.95m81-26.35c-38.51-4.67-81.42-10.2-115.84-14.89a103.33,103.33,0,0,1-9.38,21.17c16.42,4.41,34.71,9.22,53,13.89,16.08,4.12,33.11,4,48.75-1.5q13.15-4.65,25.53-9.86c4.42-1.87,2.73-8.23-2-8.81M936.67,113.08c-33.38,8.62-79.27,20.4-126.19,32.47a15.58,15.58,0,0,1-1.49,6.82c-2.28,4.85-7.3,12.14-12.38,19.29a65.52,65.52,0,0,1-13.77,14.45c41.53-7.21,82.25-14.27,110.89-19.06,16-2.68,27.6-11.18,37-24.43,4.56-6.44,10.61-15.07,13-20.18,3-6.35-.31-11.11-7.06-9.36M494.13,333.14a43.88,43.88,0,0,0,19.07-2,103.44,103.44,0,0,1-17.31-11.42l-4.51,2.61c-4.84,2.79-2.77,10,2.75,10.77m414-158c-64.49,9.61-154.43,23.28-221.63,33.64l-24.91,4.28a103.1,103.1,0,0,1,3.28,22.72c57.44-3.31,138.19-8,194.89-11.47,16.22-1,28.63-8.22,39.35-20.42,5.22-5.92,12.14-13.87,15.05-18.7,3.64-6,.87-11.08-6-10.05m-51.85,60.27c-56.64,1.88-135.17,4.3-191.37,5.93a104.54,104.54,0,0,1-3.09,23.36c37,3.79,83.59,8.23,123.94,11.75,16.5,1.42,33.28-1.87,47.24-10.77a278.29,278.29,0,0,0,27.12-19.58c4.44-3.63,1.89-10.87-3.84-10.69M632.93,322.37l-5.48-3.18a104,104,0,0,1-17.35,11.65,44.42,44.42,0,0,0,20.08,2.3c5.52-.8,7.59-8,2.75-10.77M490.66,315.2a104.16,104.16,0,0,1-15.26-17.8c-14.36,4.52-30.19,9.39-46.19,14.22-4.53,1.37-5.34,7.84-.72,8.95,3.67.87,7.36,1.73,11.1,2.55a71.73,71.73,0,0,0,48.05-6.38l3-1.54m-158.07-147c8.54,12.07,19.07,19.81,33.66,22.24,25.06,4.19,60.28,10.29,96.54,16.59a103.76,103.76,0,0,1,13.71-27.3c-53.9-13.87-110.77-28.45-149.35-38.43-6.13-1.59-9.12,2.74-6.42,8.54,2.19,4.65,7.68,12.5,11.86,18.36m425.47,22.24c14.6-2.43,25.12-10.17,33.67-22.24,4.18-5.86,9.67-13.71,11.86-18.36,2.7-5.8-.3-10.13-6.42-8.54-38.93,10.07-96.46,24.82-150.79,38.8a103.33,103.33,0,0,1,13.54,27.21c36.83-6.41,72.71-12.62,98.14-16.87m-416.58-4.34a65.07,65.07,0,0,1-13.77-14.45c-5.08-7.15-10.1-14.44-12.38-19.29a15.3,15.3,0,0,1-1.49-6.82C266.92,133.48,221,121.7,187.65,113.08c-6.75-1.75-10.05,3-7.07,9.36,2.4,5.11,8.46,13.74,13,20.18,9.39,13.25,21,21.75,37,24.43,28.65,4.79,69.36,11.85,110.9,19.06m116.24,49.6a104.08,104.08,0,0,1,3.35-22.9l-23.28-4c-67.2-10.36-157.15-24-221.63-33.64-6.9-1-9.67,4.05-6,10.05,2.91,4.83,9.82,12.78,15,18.7,10.73,12.2,23.14,19.44,39.36,20.42,56.15,3.41,135.86,8.07,193.19,11.37M472,291.94a103.17,103.17,0,0,1-9.54-21.34c-34.13,4.65-76.31,10.08-114.21,14.67-4.76.58-6.46,6.94-2,8.81q12.38,5.21,25.54,9.86c15.64,5.54,32.67,5.62,48.75,1.5,17.71-4.53,35.46-9.19,51.5-13.5M338.53,276.48c39.74-3.47,85.53-7.83,122.28-11.58a104.05,104.05,0,0,1-3.13-23.58c-56.08-1.62-133.61-4-189.67-5.88-5.74-.18-8.28,7.06-3.85,10.69a280.74,280.74,0,0,0,27.12,19.58c14,8.9,30.74,12.19,47.25,10.77M801.88,380.59l-3.61-8.36-3.63,8.36Zm-1.4-24.76,16.42,35.73H806.63l-1.77-4.11H791.68l-1.79,4.11H779.64L796,355.83Zm-33.74,35.73h9.37V356.27h-9.37ZM736.44,365h8.48v26.53h9.39V365h8.45v-8.76H736.44Zm-13.37,8.41L705,355.92h-3v35.67h9.37V374.34l18.15,17.57h3V356.23h-9.39Zm-49.2,18.12h22.88v-8.78H683.13v-5h11.21v-7.82H683.13V365h13.62v-8.72H673.87Zm-15.5,0h9.37V356.27h-9.37Zm-13-22.88c0-2.14-1.8-3.76-4.3-3.76h-4v7.6l4,0a4,4,0,0,0,4.3-3.86m9,0c0,6.81-5.94,12.53-13.34,12.53h-4v10.39h-9.37V356.27h13.33c7.27,0,13.34,5.48,13.34,12.37m-45.21,11.95-3.62-8.36-3.63,8.36Zm-1.4-24.76,16.42,35.73H613.93l-1.78-4.11H599l-1.79,4.11H586.93l16.4-35.73Zm-30,14.41c-3.8-1.6-6.3-2.12-6.3-3.74,0-1.21,1.38-2.19,3.31-2.19,1.68,0,4.4.81,5.45,2.67l5.4-5.21c-1.37-3.48-5.58-6-11-6-6.7,0-12.51,4.35-12.51,10.46,0,5.32,3.84,8.25,8.3,10.18,3.46,1.54,7.07,3.13,7.07,4.95,0,1.44-2,2.17-3.94,2.17a8.63,8.63,0,0,1-7.16-3.48l-5.67,5.56c1.78,3.9,7.05,6.46,12.85,6.46,7.08,0,13.34-4.19,13.34-10.91,0-5.21-3.66-8.58-9.18-10.9m-56.94,21.32h22.88v-8.78H530.14v-5h11.21v-7.82H530.14V365h13.62v-8.72H520.88ZM490.58,365h8.47v26.53h9.39V365h8.45v-8.76H490.58Zm-12,15.56L475,372.23l-3.64,8.36Zm-1.4-24.76,16.42,35.73H483.31l-1.77-4.11H468.36l-1.8,4.11H456.32l16.39-35.73ZM433.88,376.7l-15.15-20.76H415v35.62h9.37v-14L433.85,391h.07l9.5-13.39v14h9.37V355.94H449Zm-34.42,14.86h9.37V356.27h-9.37ZM369.16,365h8.47v26.53H387V365h8.45v-8.76H369.16Zm-8.78-8.76H351v35.29h22.88v-8.8H360.38Zm-24.63,0h9.44v22.46c0,8.11-6.57,13.82-14.65,13.82s-14.65-5.71-14.65-13.82V356.27h9.44v22.44a5,5,0,0,0,5.19,4.89,5.09,5.09,0,0,0,5.23-4.89Z"/></svg>